# xmcd
#
# Track frame offsets: 
#        150
#        18400
#        37250
#        53370
#        68952
#        86825
#        107810
#        122975
#        138440
#        157320
#        175272
#
# Disc length: 2554 seconds
#
# Revision: 0
# Processed by: cddbd v1.4PL0 Copyright (c) Steve Scherf et al.
# Submitted via: ExactAudioCopy v0.90a11
#
DISCID=9e09f80b
DTITLE=Montana Blue - Chained To An Elephant
DYEAR=1900
DGENRE=
TTITLE0=Zeb And LuLu
TTITLE1=Trains
TTITLE2=Backroad
TTITLE3=Texas (Motorcade)
TTITLE4=Ashes
TTITLE5=Live It Down
TTITLE6=Foolish Man
TTITLE7=Second Hand Rose
TTITLE8=Thousands
TTITLE9=Zeb And Lulu
TTITLE10=For What It's Worth
EXTD=
EXTT0=
EXTT1=
EXTT2=
EXTT3=
EXTT4=
EXTT5=
EXTT6=
EXTT7=
EXTT8=
EXTT9=
EXTT10=
PLAYORDER=
